<svg xmlns="http://www.w3.org/2000/svg" xmlns:xlink="http://www.w3.org/1999/xlink" width="228" height="62" viewBox="0 0 228 62">
  <defs>
    <polygon id="logo_ch_black-a" points="0 .156 61.24 .156 61.24 61.839 0 61.839"/>
    <linearGradient id="logo_ch_black-c" x1="49.93%" x2="49.93%" y1="-.01%" y2="100.023%">
      <stop offset="0%" stop-color="#00CBCB"/>
      <stop offset="16.17%" stop-color="#0FC8B2"/>
      <stop offset="44.97%" stop-color="#28C48B"/>
      <stop offset="60%" stop-color="#31C27C"/>
      <stop offset="70%" stop-color="#21C077"/>
      <stop offset="88.57%" stop-color="#09BD71"/>
      <stop offset="100%" stop-color="#00BC6E"/>
    </linearGradient>
  </defs>
  <g fill="none" fill-rule="evenodd">
    <path fill="#000" fill-rule="nonzero" d="M223.357,12.271 L223.347,16.061 L198.92,16.74 L197.889,28.025 C197.862056,28.3218463 197.961099,28.6163518 198.16194,28.8365932 C198.334091,29.0253715 198.567448,29.1446922 198.818312,29.1752231 L198.945,29.183 L208.028,29.207 L208.055,19.215 L212.295,20.085 L212.27,29.219 L225.173,29.254 L225.163,33.044 L212.26,33.01 L212.212,50.892 L203.867,50.87 L202.724,47.076 L207.98,47.089 L208.018,32.999 L195.021,32.963 C194.425232,32.9617674 193.857371,32.7103778 193.455941,32.2701557 C193.094655,31.8739559 192.898075,31.3575874 192.901429,30.8257197 L192.91,30.648 L194.518,13.052 L195.129,13.054 L223.357,12.271 Z M154.103,31.305 L182.106,31.38 C183.280215,31.3827584 184.229212,32.3357837 184.227004,33.509 L184.227004,33.509 L184.181,50.817 L154.051,50.737 L154.073,42.917 L154.083,39.125 L154.103,31.305 Z M126.697,11.2059461 L130.353,11.216 C138.67,11.238 145.396,17.991 145.373,26.298 L145.373,26.298 L145.348,35.671 C145.344266,38.9204298 144.282779,42.0803195 142.324,44.673 L142.324,44.673 L146.566,50.717 L146.565,50.717 L141.135,50.702 L139.111,47.819 C136.533836,49.6864214 133.429589,50.6859159 130.247,50.673 L130.247,50.673 L126.591,50.663 C118.274,50.641 111.548,43.889 111.570941,35.581 L111.570941,35.581 L111.596,26.207 C111.618,17.9 118.38,11.184 126.697,11.2059461 L126.697,11.2059461 Z M87.911,11.1019461 L91.566,11.112 C99.884,11.134 106.609,17.887 106.587,26.194 L106.587,26.194 L106.562,35.568 C106.558049,38.8170875 105.496573,41.9765926 103.538,44.569 L103.538,44.569 L107.779,50.613 L102.349,50.598 L100.324,47.715 C97.7471118,49.5822194 94.6432476,50.5817036 91.461,50.569 L91.461,50.569 L87.805,50.559 C79.487,50.537 72.762,43.785 72.7849412,35.477 L72.7849412,35.477 L72.81,26.103 C72.832,17.797 79.593,11.08 87.911,11.1019461 L87.911,11.1019461 Z M216.886,36.221 L221.74,36.234 L227.126,49.101 L222.272,49.088 L216.886,36.221 Z M196.965,36.168 L201.819,36.181 L196.364,49.019 L191.51,49.006 L196.965,36.168 Z M158.572,42.928 L158.562,46.958 L179.689883,47.0138925 L179.702,42.985 L158.572,42.928 Z M126.686,15.6519596 C120.836,15.636 116.063,20.377 116.048,26.22 L116.048,26.22 L116.02296,35.593 C116.007,41.436 120.754,46.201 126.604,46.217 L126.604,46.217 L130.258,46.227 C132.52105,46.2318278 134.725962,45.5095954 136.547,44.166 L136.547,44.166 L130.309,35.279 L135.741,35.293 L139.571,40.75 C140.436562,39.1929084 140.89248,37.4414935 140.896,35.66 L140.896,35.66 L140.92104,26.286 C140.937,20.443 136.19,15.677 130.34,15.662 L130.34,15.662 Z M87.899,15.5489544 C82.049,15.532 77.277,20.273 77.262,26.116 L77.262,26.116 L77.2369597,35.49 C77.221,41.332 81.967,46.097 87.817,46.113 L87.817,46.113 L91.472,46.1230292 C93.7351288,46.1283256 95.9399869,45.4057604 97.761,44.062 L97.761,44.062 L91.523,35.175 L96.955,35.189 L100.785,40.646 C101.650562,39.0889084 102.10648,37.3374935 102.11,35.556 L102.11,35.556 L102.13504,26.182 C102.151,20.339 97.404,15.574 91.554,15.559 L91.554,15.559 Z M158.593,35.108 L158.582,39.138 L179.712,39.194 L179.719002,36.226 C179.719531,35.9443399 179.608151,35.6740051 179.409362,35.4744663 C179.210573,35.2749274 178.94066,35.1625299 178.659,35.162 L178.659,35.162 L158.593,35.108 Z M156.919,19.695 L161.409,19.707 L163.739,25.067 L174.631,25.096 L176.99,19.748 L181.48,19.76 L179.12,25.108 L188.072,25.133 L188.062,28.923 L150.287,28.822 L150.298,25.032 L159.249,25.055 L156.919,19.695 Z M166.05,11.142 L171.228,11.156 L172.134,14.162 L186.358,14.2 L186.348,17.991 L152.286,17.899 L152.296,14.108 L166.956,14.148 L166.05,11.142 Z"/>
    <mask id="logo_ch_black-b" fill="#fff">
      <use xlink:href="#logo_ch_black-a"/>
    </mask>
    <path fill="#FFDC00" fill-rule="nonzero" d="M48.566,6.48 L47.59,0.157 L44.178,3.834 C39.9620761,1.75176516 35.3220928,0.671680539 30.62,0.678 C13.71,0.678 0,14.37 0,31.258 C0,48.148 13.71,61.838 30.62,61.838 C47.53,61.838 61.24,48.148 61.24,31.258 C61.24,21.065 56.244,12.038 48.566,6.481" mask="url(#logo_ch_black-b)"/>
    <path fill="url(#logo_ch_black-c)" fill-rule="nonzero" d="M4.252,7.141 C3.68401625,7.13652701 3.1572841,7.43708221 2.87216522,7.92833853 C2.58704634,8.41959485 2.587365,9.02604359 2.873,9.517 L5.426,13.92 L17.933,35.493 C16.3711021,35.1660992 14.7694769,35.0717472 13.18,35.213 C5.516,35.883 -0.237,41.68 0.331,48.16 C0.9,54.64 7.573,59.35 15.237,58.68 C22.901,58.01 28.654,52.213 28.085,45.733 C27.934,44.002 27.347,42.588 26.416,40.988 L13.766,19.236 C20.14,15.916 27.825,9.023 30.885,0 C22.987,5.778 13.005,7.208 4.251,7.141" transform="translate(17)"/>
  </g>
</svg>
