<?xml version="1.0" standalone="no"?><!DOCTYPE svg PUBLIC "-//W3C//DTD SVG 1.1//EN" "http://www.w3.org/Graphics/SVG/1.1/DTD/svg11.dtd"><svg t="1650207455795" class="icon" viewBox="0 0 1024 1024" version="1.1" xmlns="http://www.w3.org/2000/svg" p-id="6996" xmlns:xlink="http://www.w3.org/1999/xlink" width="200" height="200"><defs><style type="text/css">@font-face { font-family: feedback-iconfont; src: url("//at.alicdn.com/t/font_1031158_u69w8yhxdu.woff2?t=1630033759944") format("woff2"), url("//at.alicdn.com/t/font_1031158_u69w8yhxdu.woff?t=1630033759944") format("woff"), url("//at.alicdn.com/t/font_1031158_u69w8yhxdu.ttf?t=1630033759944") format("truetype"); }
</style></defs><path d="M512 512m-469.333333 0a469.333333 469.333333 0 1 0 938.666666 0 469.333333 469.333333 0 1 0-938.666666 0Z" fill="#8a8a8a" p-id="6997"></path><path d="M787.690667 236.842667a42.666667 42.666667 0 0 1 1.642666 11.733333v81.92a42.666667 42.666667 0 0 1-30.933333 41.002667L554.666667 429.696V682.666667a149.333333 149.333333 0 0 1-144.213334 149.248L405.333333 832a149.333333 149.333333 0 1 1 85.354667-271.872L490.666667 298.666667h1.386666a42.666667 42.666667 0 0 1 29.568-30.165334l213.333334-60.970666a42.666667 42.666667 0 0 1 52.736 29.312z" fill="#ffffff" p-id="6998" data-spm-anchor-id="a313x.7781069.0.i2" class=""></path></svg>