<?xml version="1.0" standalone="no"?><!DOCTYPE svg PUBLIC "-//W3C//DTD SVG 1.1//EN" "http://www.w3.org/Graphics/SVG/1.1/DTD/svg11.dtd"><svg t="1650207557970" class="icon" viewBox="0 0 1024 1024" version="1.1" xmlns="http://www.w3.org/2000/svg" p-id="12953" xmlns:xlink="http://www.w3.org/1999/xlink" width="200" height="200"><defs><style type="text/css">@font-face { font-family: feedback-iconfont; src: url("//at.alicdn.com/t/font_1031158_u69w8yhxdu.woff2?t=1630033759944") format("woff2"), url("//at.alicdn.com/t/font_1031158_u69w8yhxdu.woff?t=1630033759944") format("woff"), url("//at.alicdn.com/t/font_1031158_u69w8yhxdu.ttf?t=1630033759944") format("truetype"); }
</style></defs><path d="M54.186667 91.761778c36.892444-40.220444 89.6-62.663111 151.751111-62.663111h612.152889c48.924444 0 88.32 13.027556 119.125333 34.616889 30.378667 21.333333 49.92 49.208889 62.321778 75.434666a259.982222 259.982222 0 0 1 21.390222 70.371556c1.678222 10.666667 2.673778 21.418667 3.015111 32.199111v1.080889h-42.666667 42.666667v710.684444c0 13.824-6.883556 26.737778-18.460444 34.588445a43.235556 43.235556 0 0 1-39.367111 4.664889l-365.681778-137.386667L234.666667 992.711111a43.235556 43.235556 0 0 1-39.395556-4.664889 41.813333 41.813333 0 0 1-18.460444-34.588444v-496.924445H42.666667c-23.552 0-42.666667-18.830222-42.666667-42.040889V242.801778c0-57.742222 17.834667-111.36 54.186667-151.04z m165.319111 109.027555c-23.552 0-42.666667 18.801778-42.666667 42.012445h85.333333c0-11.150222-4.494222-21.816889-12.515555-29.724445a43.008 43.008 0 0 0-30.151111-12.288z m147.797333 213.731556h0.028445c0 23.210667 19.114667 42.012444 42.666666 42.012444h367.217778c23.580444 0 42.666667-18.773333 42.666667-42.012444 0-23.210667-19.086222-42.012444-42.666667-42.012445H409.969778c-23.580444 0-42.666667 18.801778-42.666667 42.012445z m0 171.690667c0 23.210667 19.086222 42.012444 42.666667 42.012444h163.242666c23.552 0 42.666667-18.801778 42.666667-42.012444 0-23.210667-19.114667-42.012444-42.666667-42.012445h-163.271111c-23.552 0-42.666667 18.801778-42.666666 42.012445z" p-id="12954" fill="#8a8a8a"></path></svg>