<?xml version="1.0" standalone="no"?><!DOCTYPE svg PUBLIC "-//W3C//DTD SVG 1.1//EN" "http://www.w3.org/Graphics/SVG/1.1/DTD/svg11.dtd"><svg t="1650207438167" class="icon" viewBox="0 0 1024 1024" version="1.1" xmlns="http://www.w3.org/2000/svg" p-id="4948" xmlns:xlink="http://www.w3.org/1999/xlink" width="200" height="200"><defs><style type="text/css">@font-face { font-family: feedback-iconfont; src: url("//at.alicdn.com/t/font_1031158_u69w8yhxdu.woff2?t=1630033759944") format("woff2"), url("//at.alicdn.com/t/font_1031158_u69w8yhxdu.woff?t=1630033759944") format("woff"), url("//at.alicdn.com/t/font_1031158_u69w8yhxdu.ttf?t=1630033759944") format("truetype"); }
</style></defs><path d="M512 34.133333C249.173333 34.133333 34.133333 249.173333 34.133333 512s215.04 477.866667 477.866667 477.866667c13.653333 0 25.6-11.946667 25.6-25.6V559.786667c0-11.946667 10.24-22.186667 22.186667-22.186667h404.48c13.653333 0 25.6-11.946667 25.6-25.6C989.866667 249.173333 774.826667 34.133333 512 34.133333z" fill="#8a8a8a" p-id="4949"></path><path d="M940.373333 629.76H655.36c-13.653333 0-25.6 11.946667-25.6 25.6v285.013333c0 13.653333 11.946667 25.6 25.6 25.6h285.013333c13.653333 0 25.6-11.946667 25.6-25.6V655.36c0-15.36-11.946667-25.6-25.6-25.6z" fill="#8a8a8a" p-id="4950"></path></svg>