<?xml version="1.0" standalone="no"?><!DOCTYPE svg PUBLIC "-//W3C//DTD SVG 1.1//EN" "http://www.w3.org/Graphics/SVG/1.1/DTD/svg11.dtd"><svg t="1650208136506" class="icon" viewBox="0 0 1024 1024" version="1.1" xmlns="http://www.w3.org/2000/svg" p-id="4607" xmlns:xlink="http://www.w3.org/1999/xlink" width="200" height="200"><defs><style type="text/css">@font-face { font-family: feedback-iconfont; src: url("//at.alicdn.com/t/font_1031158_u69w8yhxdu.woff2?t=1630033759944") format("woff2"), url("//at.alicdn.com/t/font_1031158_u69w8yhxdu.woff?t=1630033759944") format("woff"), url("//at.alicdn.com/t/font_1031158_u69w8yhxdu.ttf?t=1630033759944") format("truetype"); }
</style></defs><path d="M594.7 143.1c0-43.9-36.8-79.7-82.2-79.7-45.3 0-82.2 35.7-82.2 79.7 0 4.5 0.4 8.9 1.1 13.2-113.5 38.3-206.7 156.1-206.7 295.4v109.6s0 157.9-40 159.3c-23.9 0-42.2 17.8-42.2 39.8 0 22.1 18.4 39.8 41.1 39.8h657.8c22.8 0 41.1-17.8 41.1-39.8 0-22.2-18.4-39.8-41.1-39.8-41.1 0-41.1-158.2-41.1-158.2V451.6c0-139.4-87.1-257.2-206.7-295.5 0.7-4.2 1.1-8.6 1.1-13z m41.1 696.8c-0.1 66.1-54.8 119.5-123.3 119.5-68 0-123.2-53.3-123.3-119.5" p-id="4608" fill="#8a8a8a"></path></svg>